<svg width="1169" height="1080" viewBox="0 0 1169 1080" fill="none" xmlns="http://www.w3.org/2000/svg">
<g clip-path="url(#clip0_258_63)">
<path d="M985.448 422.116C962.41 407.942 946.84 383.417 945.828 355.07V351.989C945.828 157.877 783.928 0 584.433 0C384.939 0 223.419 157.508 223.419 351.743V355.193C222.406 383.047 207.216 407.326 184.811 421.376C74.4308 481.643 0 596.508 0 728.257C0 922.492 161.773 1080 361.141 1080C426.964 1080 488.737 1062.87 541.902 1032.8C554.307 1025.65 568.99 1021.7 584.433 1021.7C597.978 1021.7 610.763 1024.66 622.155 1030.21C623.927 1030.95 625.446 1031.81 626.965 1032.67C680.13 1062.87 741.776 1080 807.852 1080C1007.22 1080 1168.99 922.492 1168.99 728.257C1168.99 597.001 1095.07 482.506 985.448 422.116ZM823.295 694.488C823.295 720.863 808.865 745.265 785.447 758.329L624.307 848.915C600.889 862.102 572.028 862.102 548.61 848.915L387.47 758.329C364.053 745.265 349.622 720.863 349.622 694.488V513.441C349.622 487.066 364.053 462.664 387.47 449.476L548.61 359.014C572.028 345.827 600.889 345.827 624.307 359.014L785.447 449.476C808.865 462.664 823.295 487.066 823.295 513.441V694.488Z" fill="white"/>
</g>
<defs>
<clipPath id="clip0_258_63">
<rect width="1169" height="1080" fill="white"/>
</clipPath>
</defs>
</svg>
